<svg version="1.1" viewBox="0.0 0.0 960.0 720.0" fill="none" stroke="none" stroke-linecap="square" stroke-miterlimit="10" xmlns:xlink="http://www.w3.org/1999/xlink" xmlns="http://www.w3.org/2000/svg"><clipPath id="p.0"><path d="m0 0l960.0 0l0 720.0l-960.0 0l0 -720.0z" clip-rule="nonzero"/></clipPath><g clip-path="url(#p.0)"><path fill="#000000" fill-opacity="0.0" d="m0 0l960.0 0l0 720.0l-960.0 0z" fill-rule="evenodd"/><path fill="#f2581a" fill-opacity="0.3" d="m66.40945 360.0l0 0c0 -198.82251 185.1708 -360.0 413.59055 -360.0l0 0c228.41974 0 413.59058 161.17749 413.59058 360.0l0 0c0 198.82251 -185.17084 360.0 -413.59058 360.0l0 0c-228.41975 0 -413.59055 -161.17749 -413.59055 -360.0z" fill-rule="evenodd"/><path stroke="#000000" stroke-width="1.0" stroke-linejoin="round" stroke-linecap="butt" d="m66.40945 360.0l0 0c0 -198.82251 185.1708 -360.0 413.59055 -360.0l0 0c228.41974 0 413.59058 161.17749 413.59058 360.0l0 0c0 198.82251 -185.17084 360.0 -413.59058 360.0l0 0c-228.41975 0 -413.59055 -161.17749 -413.59055 -360.0z" fill-rule="evenodd"/><path fill="#f2581a" fill-opacity="0.5227" d="m128.57704 330.84186l0 0c0 -150.0649 151.10918 -271.71655 337.51178 -271.71655l0 0c186.40262 0 337.5118 121.65164 337.5118 271.71655l0 0c0 150.06491 -151.10919 271.71655 -337.5118 271.71655l0 0c-186.40262 0 -337.51178 -121.65164 -337.51178 -271.71655z" fill-rule="evenodd"/><path stroke="#000000" stroke-width="1.0" stroke-linejoin="round" stroke-linecap="butt" d="m128.57704 330.84186l0 0c0 -150.0649 151.10918 -271.71655 337.51178 -271.71655l0 0c186.40262 0 337.5118 121.65164 337.5118 271.71655l0 0c0 150.06491 -151.10919 271.71655 -337.5118 271.71655l0 0c-186.40262 0 -337.51178 -121.65164 -337.51178 -271.71655z" fill-rule="evenodd"/><path fill="#f2581a" fill-opacity="0.7727" d="m176.1441 300.68536l0 0c0 -105.15155 104.38464 -190.3937 233.1496 -190.3937l0 0c128.76501 0 233.1496 85.24216 233.1496 190.3937l0 0c0 105.15152 -104.38458 190.3937 -233.1496 190.3937l0 0c-128.76495 0 -233.1496 -85.24219 -233.1496 -190.3937z" fill-rule="evenodd"/><path stroke="#000000" stroke-width="1.0" stroke-linejoin="round" stroke-linecap="butt" d="m176.1441 300.68536l0 0c0 -105.15155 104.38464 -190.3937 233.1496 -190.3937l0 0c128.76501 0 233.1496 85.24216 233.1496 190.3937l0 0c0 105.15152 -104.38458 190.3937 -233.1496 190.3937l0 0c-128.76495 0 -233.1496 -85.24219 -233.1496 -190.3937z" fill-rule="evenodd"/><path fill="#f2581a" d="m244.01054 273.9555l0 0c0 -49.253357 50.221664 -89.18109 112.17323 -89.18109l0 0c61.95157 0 112.17322 39.927734 112.17322 89.18109l0 0c0 49.253357 -50.22165 89.18112 -112.17322 89.18112l0 0c-61.95157 0 -112.17323 -39.927765 -112.17323 -89.18112z" fill-rule="evenodd"/><path stroke="#000000" stroke-width="1.0" stroke-linejoin="round" stroke-linecap="butt" d="m244.01054 273.9555l0 0c0 -49.253357 50.221664 -89.18109 112.17323 -89.18109l0 0c61.95157 0 112.17322 39.927734 112.17322 89.18109l0 0c0 49.253357 -50.22165 89.18112 -112.17322 89.18112l0 0c-61.95157 0 -112.17323 -39.927765 -112.17323 -89.18112z" fill-rule="evenodd"/><path fill="#000000" fill-opacity="0.0" d="m642.4434 554.1417l148.25195 0l0 78.86615l-148.25195 0z" fill-rule="evenodd"/><path fill="#000000" d="m658.6622 588.98175l0 10.0l-3.59375 0l0 -26.75l7.890625 0q2.53125 0 4.40625 0.59375q1.890625 0.59375 3.109375 1.671875q1.234375 1.078125 1.84375 2.609375q0.609375 1.53125 0.609375 3.421875q0 1.859375 -0.65625 3.40625q-0.65625 1.546875 -1.921875 2.671875q-1.25 1.125 -3.125 1.75q-1.859375 0.625 -4.265625 0.625l-4.296875 0zm0 -2.875l4.296875 0q1.546875 0 2.734375 -0.40625q1.1875 -0.421875 1.984375 -1.15625q0.8125 -0.734375 1.21875 -1.765625q0.40625 -1.03125 0.40625 -2.25q0 -2.5625 -1.578125 -4.0q-1.578125 -1.4375 -4.765625 -1.4375l-4.296875 0l0 11.015625zm31.264832 12.875l-1.46875 0q-0.484375 0 -0.796875 -0.140625q-0.296875 -0.15625 -0.390625 -0.640625l-0.359375 -1.75q-0.75 0.671875 -1.46875 1.203125q-0.703125 0.53125 -1.484375 0.890625q-0.78125 0.359375 -1.671875 0.546875q-0.890625 0.1875 -1.96875 0.1875q-1.109375 0 -2.078125 -0.296875q-0.953125 -0.3125 -1.65625 -0.921875q-0.703125 -0.625 -1.125 -1.5625q-0.421875 -0.953125 -0.421875 -2.234375q0 -1.125 0.609375 -2.15625q0.625 -1.03125 1.984375 -1.828125q1.375 -0.8125 3.59375 -1.328125q2.234375 -0.515625 5.4375 -0.59375l0 -1.46875q0 -2.203125 -0.953125 -3.328125q-0.9375 -1.140625 -2.78125 -1.140625q-1.203125 0 -2.046875 0.3125q-0.828125 0.3125 -1.4375 0.703125q-0.59375 0.375 -1.046875 0.6875q-0.4375 0.296875 -0.859375 0.296875q-0.34375 0 -0.59375 -0.171875q-0.25 -0.171875 -0.390625 -0.4375l-0.609375 -1.0625q1.578125 -1.515625 3.375 -2.265625q1.8125 -0.75 4.015625 -0.75q1.59375 0 2.828125 0.53125q1.234375 0.515625 2.0625 1.453125q0.84375 0.9375 1.265625 2.265625q0.4375 1.3125 0.4375 2.90625l0 12.09375zm-8.625 -2.03125q0.875 0 1.609375 -0.171875q0.734375 -0.1875 1.375 -0.515625q0.640625 -0.328125 1.21875 -0.78125q0.59375 -0.46875 1.15625 -1.078125l0 -3.9375q-2.296875 0.078125 -3.90625 0.375q-1.59375 0.28125 -2.609375 0.75q-1.0 0.46875 -1.46875 1.109375q-0.453125 0.625 -0.453125 1.40625q0 0.75 0.234375 1.296875q0.25 0.53125 0.65625 0.875q0.421875 0.34375 0.96875 0.515625q0.5625 0.15625 1.21875 0.15625zm13.65979 2.03125l0 -18.90625l1.90625 0q0.546875 0 0.75 0.203125q0.203125 0.203125 0.28125 0.703125l0.21875 2.953125q0.96875 -1.96875 2.390625 -3.078125q1.4375 -1.125 3.359375 -1.125q0.78125 0 1.421875 0.1875q0.640625 0.171875 1.171875 0.484375l-0.421875 2.484375q-0.140625 0.46875 -0.578125 0.46875q-0.265625 0 -0.8125 -0.171875q-0.53125 -0.171875 -1.5 -0.171875q-1.734375 0 -2.90625 1.015625q-1.171875 1.0 -1.953125 2.921875l0 12.03125l-3.328125 0zm25.871399 -15.796875q-0.21875 0.421875 -0.6875 0.421875q-0.28125 0 -0.640625 -0.203125q-0.34375 -0.21875 -0.859375 -0.46875q-0.515625 -0.25 -1.234375 -0.453125q-0.703125 -0.21875 -1.671875 -0.21875q-0.84375 0 -1.515625 0.21875q-0.671875 0.203125 -1.15625 0.578125q-0.46875 0.375 -0.71875 0.875q-0.25 0.484375 -0.25 1.0625q0 0.734375 0.421875 1.21875q0.421875 0.484375 1.109375 0.84375q0.6875 0.34375 1.5625 0.625q0.890625 0.265625 1.8125 0.578125q0.921875 0.296875 1.796875 0.671875q0.875 0.375 1.5625 0.9375q0.703125 0.5625 1.109375 1.375q0.421875 0.8125 0.421875 1.953125q0 1.296875 -0.46875 2.40625q-0.453125 1.109375 -1.375 1.921875q-0.90625 0.8125 -2.234375 1.28125q-1.328125 0.46875 -3.0625 0.46875q-1.984375 0 -3.59375 -0.640625q-1.59375 -0.640625 -2.71875 -1.65625l0.78125 -1.265625q0.15625 -0.25 0.359375 -0.375q0.203125 -0.125 0.546875 -0.125q0.328125 0 0.703125 0.265625q0.375 0.25 0.90625 0.578125q0.53125 0.3125 1.28125 0.578125q0.765625 0.25 1.90625 0.25q0.96875 0 1.6875 -0.25q0.734375 -0.25 1.21875 -0.671875q0.484375 -0.4375 0.71875 -1.0q0.234375 -0.5625 0.234375 -1.1875q0 -0.78125 -0.421875 -1.296875q-0.421875 -0.515625 -1.109375 -0.875q-0.6875 -0.375 -1.578125 -0.640625q-0.890625 -0.265625 -1.8125 -0.5625q-0.921875 -0.3125 -1.8125 -0.6875q-0.890625 -0.390625 -1.578125 -0.96875q-0.6875 -0.578125 -1.109375 -1.421875q-0.421875 -0.84375 -0.421875 -2.0625q0 -1.078125 0.453125 -2.078125q0.453125 -1.0 1.3125 -1.75q0.859375 -0.765625 2.109375 -1.203125q1.25 -0.453125 2.84375 -0.453125q1.875 0 3.359375 0.59375q1.484375 0.578125 2.5625 1.609375l-0.75 1.203125zm9.075439 -3.109375l0 18.90625l-3.328125 0l0 -18.90625l3.328125 0zm0.75 -5.9375q0 0.484375 -0.203125 0.90625q-0.1875 0.421875 -0.515625 0.75q-0.328125 0.328125 -0.765625 0.515625q-0.421875 0.1875 -0.90625 0.1875q-0.484375 0 -0.90625 -0.1875q-0.421875 -0.1875 -0.75 -0.515625q-0.328125 -0.328125 -0.515625 -0.75q-0.1875 -0.421875 -0.1875 -0.90625q0 -0.484375 0.1875 -0.921875q0.1875 -0.4375 0.515625 -0.765625q0.328125 -0.328125 0.75 -0.515625q0.421875 -0.1875 0.90625 -0.1875q0.484375 0 0.90625 0.1875q0.4375 0.1875 0.765625 0.515625q0.328125 0.328125 0.515625 0.765625q0.203125 0.4375 0.203125 0.921875zm5.1029053 24.84375l0 -18.90625l1.984375 0q0.703125 0 0.890625 0.6875l0.265625 2.0625q1.234375 -1.375 2.75 -2.203125q1.53125 -0.84375 3.515625 -0.84375q1.5625 0 2.734375 0.515625q1.1875 0.515625 1.984375 1.453125q0.796875 0.9375 1.203125 2.265625q0.40625 1.328125 0.40625 2.9375l0 12.03125l-3.3125 0l0 -12.03125q0 -2.15625 -0.984375 -3.34375q-0.984375 -1.1875 -3.0 -1.1875q-1.46875 0 -2.75 0.71875q-1.28125 0.703125 -2.359375 1.921875l0 13.921875l-3.328125 0zm27.129517 -19.21875q1.234375 0 2.296875 0.265625q1.078125 0.265625 1.953125 0.796875l5.140625 0l0 1.234375q0 0.609375 -0.796875 0.78125l-2.140625 0.296875q0.640625 1.21875 0.640625 2.703125q0 1.375 -0.53125 2.515625q-0.53125 1.125 -1.484375 1.9375q-0.9375 0.796875 -2.234375 1.234375q-1.296875 0.421875 -2.84375 0.421875q-1.328125 0 -2.5 -0.328125q-0.609375 0.375 -0.921875 0.8125q-0.296875 0.421875 -0.296875 0.828125q0 0.671875 0.53125 1.03125q0.546875 0.34375 1.4375 0.5q0.90625 0.140625 2.046875 0.1875q1.140625 0.03125 2.3125 0.109375q1.1875 0.078125 2.328125 0.296875q1.140625 0.203125 2.03125 0.671875q0.90625 0.453125 1.4375 1.28125q0.546875 0.8125 0.546875 2.125q0 1.21875 -0.609375 2.34375q-0.609375 1.140625 -1.75 2.03125q-1.125 0.890625 -2.78125 1.421875q-1.640625 0.53125 -3.703125 0.53125q-2.078125 0 -3.640625 -0.421875q-1.546875 -0.40625 -2.578125 -1.09375q-1.03125 -0.6875 -1.546875 -1.59375q-0.5 -0.90625 -0.5 -1.890625q0 -1.40625 0.875 -2.375q0.890625 -0.984375 2.4375 -1.5625q-0.796875 -0.375 -1.28125 -1.0q-0.46875 -0.625 -0.46875 -1.671875q0 -0.40625 0.140625 -0.84375q0.15625 -0.4375 0.46875 -0.859375q0.3125 -0.4375 0.75 -0.828125q0.453125 -0.40625 1.046875 -0.703125q-1.390625 -0.78125 -2.1875 -2.078125q-0.796875 -1.296875 -0.796875 -3.03125q0 -1.375 0.53125 -2.5q0.53125 -1.140625 1.484375 -1.921875q0.953125 -0.796875 2.265625 -1.21875q1.3125 -0.4375 2.890625 -0.4375zm5.890625 20.25q0 -0.71875 -0.390625 -1.140625q-0.390625 -0.4375 -1.0625 -0.671875q-0.671875 -0.234375 -1.546875 -0.34375q-0.875 -0.109375 -1.84375 -0.15625q-0.96875 -0.046875 -1.984375 -0.09375q-1.015625 -0.0625 -1.921875 -0.21875q-1.0625 0.515625 -1.734375 1.25q-0.65625 0.71875 -0.65625 1.71875q0 0.640625 0.328125 1.1875q0.328125 0.546875 1.0 0.953125q0.671875 0.40625 1.6875 0.640625q1.015625 0.234375 2.390625 0.234375q1.34375 0 2.40625 -0.25q1.078125 -0.234375 1.8125 -0.6875q0.734375 -0.453125 1.125 -1.078125q0.390625 -0.609375 0.390625 -1.34375zm-5.890625 -10.265625q1.0 0 1.765625 -0.28125q0.78125 -0.28125 1.296875 -0.78125q0.53125 -0.515625 0.796875 -1.203125q0.265625 -0.703125 0.265625 -1.546875q0 -1.734375 -1.0625 -2.75q-1.046875 -1.03125 -3.0625 -1.03125q-2.0 0 -3.0625 1.03125q-1.046875 1.015625 -1.046875 2.75q0 0.84375 0.265625 1.546875q0.28125 0.6875 0.796875 1.203125q0.515625 0.5 1.28125 0.78125q0.765625 0.28125 1.765625 0.28125z" fill-rule="nonzero"/><path fill="#000000" fill-opacity="0.0" d="m526.8909 444.16196l190.04724 0l0 104.59842l-190.04724 0z" fill-rule="evenodd"/><path fill="#000000" d="m552.84406 466.43945q-0.171875 0.28125 -0.359375 0.421875q-0.1875 0.140625 -0.484375 0.140625q-0.3125 0 -0.734375 -0.3125q-0.421875 -0.328125 -1.078125 -0.703125q-0.640625 -0.390625 -1.546875 -0.703125q-0.890625 -0.328125 -2.1875 -0.328125q-1.21875 0 -2.15625 0.328125q-0.921875 0.328125 -1.546875 0.890625q-0.625 0.5625 -0.953125 1.328125q-0.3125 0.75 -0.3125 1.625q0 1.125 0.546875 1.859375q0.5625 0.734375 1.46875 1.265625q0.90625 0.515625 2.046875 0.90625q1.15625 0.375 2.359375 0.78125q1.203125 0.40625 2.34375 0.921875q1.15625 0.515625 2.046875 1.296875q0.90625 0.78125 1.453125 1.921875q0.5625 1.140625 0.5625 2.796875q0 1.765625 -0.59375 3.3125q-0.59375 1.53125 -1.75 2.671875q-1.140625 1.125 -2.8125 1.78125q-1.671875 0.65625 -3.796875 0.65625q-2.59375 0 -4.734375 -0.9375q-2.140625 -0.953125 -3.65625 -2.546875l1.046875 -1.71875q0.15625 -0.203125 0.359375 -0.34375q0.21875 -0.140625 0.484375 -0.140625q0.390625 0 0.890625 0.421875q0.515625 0.421875 1.265625 0.921875q0.75 0.5 1.828125 0.921875q1.078125 0.421875 2.625 0.421875q1.28125 0 2.28125 -0.359375q1.015625 -0.359375 1.71875 -1.0q0.703125 -0.640625 1.078125 -1.53125q0.375 -0.90625 0.375 -2.0q0 -1.21875 -0.5625 -1.984375q-0.546875 -0.78125 -1.453125 -1.296875q-0.890625 -0.53125 -2.03125 -0.890625q-1.140625 -0.359375 -2.359375 -0.734375q-1.203125 -0.390625 -2.359375 -0.890625q-1.140625 -0.515625 -2.03125 -1.3125q-0.890625 -0.8125 -1.453125 -2.015625q-0.546875 -1.203125 -0.546875 -2.96875q0 -1.421875 0.546875 -2.75q0.5625 -1.328125 1.609375 -2.34375q1.046875 -1.03125 2.578125 -1.640625q1.546875 -0.625 3.546875 -0.625q2.234375 0 4.078125 0.71875q1.84375 0.703125 3.234375 2.046875l-0.875 1.71875zm11.096497 28.140625q-0.171875 0.375 -0.421875 0.59375q-0.25 0.234375 -0.765625 0.234375l-2.46875 0l3.453125 -7.5l-7.796875 -17.8125l2.875 0q0.421875 0 0.65625 0.21875q0.25 0.203125 0.359375 0.46875l5.0625 11.90625q0.171875 0.421875 0.28125 0.828125q0.125 0.40625 0.21875 0.84375q0.140625 -0.4375 0.265625 -0.84375q0.125 -0.40625 0.296875 -0.84375l4.90625 -11.890625q0.109375 -0.296875 0.375 -0.484375q0.28125 -0.203125 0.59375 -0.203125l2.65625 0l-10.546875 24.484375zm13.565186 -5.578125l0 -18.90625l1.984375 0q0.703125 0 0.890625 0.6875l0.265625 2.0625q1.234375 -1.375 2.75 -2.203125q1.53125 -0.84375 3.515625 -0.84375q1.5625 0 2.734375 0.515625q1.1875 0.515625 1.984375 1.453125q0.796875 0.9375 1.203125 2.265625q0.40625 1.328125 0.40625 2.9375l0 12.03125l-3.3125 0l0 -12.03125q0 -2.15625 -0.984375 -3.34375q-0.984375 -1.1875 -3.0 -1.1875q-1.46875 0 -2.75 0.71875q-1.28125 0.703125 -2.359375 1.921875l0 13.921875l-3.328125 0zm26.48883 0.296875q-2.234375 0 -3.4375 -1.25q-1.203125 -1.25 -1.203125 -3.59375l0 -11.578125l-2.28125 0q-0.296875 0 -0.5 -0.171875q-0.203125 -0.1875 -0.203125 -0.5625l0 -1.3125l3.09375 -0.40625l0.765625 -5.828125q0.03125 -0.28125 0.234375 -0.453125q0.203125 -0.1875 0.53125 -0.1875l1.671875 0l0 6.515625l5.421875 0l0 2.40625l-5.421875 0l0 11.34375q0 1.203125 0.578125 1.78125q0.578125 0.578125 1.5 0.578125q0.515625 0 0.890625 -0.140625q0.390625 -0.140625 0.671875 -0.3125q0.28125 -0.171875 0.46875 -0.3125q0.203125 -0.140625 0.359375 -0.140625q0.265625 0 0.46875 0.328125l0.96875 1.578125q-0.859375 0.8125 -2.078125 1.265625q-1.203125 0.453125 -2.5 0.453125zm22.079712 -0.296875l-1.46875 0q-0.484375 0 -0.796875 -0.140625q-0.296875 -0.15625 -0.390625 -0.640625l-0.359375 -1.75q-0.75 0.671875 -1.46875 1.203125q-0.703125 0.53125 -1.484375 0.890625q-0.78125 0.359375 -1.671875 0.546875q-0.890625 0.1875 -1.96875 0.1875q-1.109375 0 -2.078125 -0.296875q-0.953125 -0.3125 -1.65625 -0.921875q-0.703125 -0.625 -1.125 -1.5625q-0.421875 -0.953125 -0.421875 -2.234375q0 -1.125 0.609375 -2.15625q0.625 -1.03125 1.984375 -1.828125q1.375 -0.8125 3.59375 -1.328125q2.234375 -0.515625 5.4375 -0.59375l0 -1.46875q0 -2.203125 -0.953125 -3.328125q-0.9375 -1.140625 -2.78125 -1.140625q-1.203125 0 -2.046875 0.3125q-0.828125 0.3125 -1.4375 0.703125q-0.59375 0.375 -1.046875 0.6875q-0.4375 0.296875 -0.859375 0.296875q-0.34375 0 -0.59375 -0.171875q-0.25 -0.171875 -0.390625 -0.4375l-0.609375 -1.0625q1.578125 -1.515625 3.375 -2.265625q1.8125 -0.75 4.015625 -0.75q1.59375 0 2.828125 0.53125q1.234375 0.515625 2.0625 1.453125q0.84375 0.9375 1.265625 2.265625q0.4375 1.3125 0.4375 2.90625l0 12.09375zm-8.625 -2.03125q0.875 0 1.609375 -0.171875q0.734375 -0.1875 1.375 -0.515625q0.640625 -0.328125 1.21875 -0.78125q0.59375 -0.46875 1.15625 -1.078125l0 -3.9375q-2.296875 0.078125 -3.90625 0.375q-1.59375 0.28125 -2.609375 0.75q-1.0 0.46875 -1.46875 1.109375q-0.453125 0.625 -0.453125 1.40625q0 0.75 0.234375 1.296875q0.25 0.53125 0.65625 0.875q0.421875 0.34375 0.96875 0.515625q0.5625 0.15625 1.21875 0.15625zm26.56604 -13.515625q-0.15625 0.203125 -0.3125 0.3125q-0.140625 0.109375 -0.421875 0.109375q-0.28125 0 -0.609375 -0.21875q-0.328125 -0.234375 -0.828125 -0.515625q-0.5 -0.28125 -1.21875 -0.515625q-0.71875 -0.234375 -1.765625 -0.234375q-1.375 0 -2.4375 0.5q-1.0625 0.484375 -1.78125 1.421875q-0.71875 0.9375 -1.09375 2.265625q-0.359375 1.3125 -0.359375 2.953125q0 1.71875 0.390625 3.0625q0.390625 1.328125 1.09375 2.234375q0.71875 0.90625 1.734375 1.390625q1.015625 0.46875 2.28125 0.46875q1.21875 0 2.0 -0.28125q0.78125 -0.296875 1.296875 -0.65625q0.53125 -0.359375 0.859375 -0.640625q0.34375 -0.296875 0.6875 -0.296875q0.421875 0 0.625 0.328125l0.9375 1.203125q-1.234375 1.515625 -3.078125 2.21875q-1.84375 0.703125 -3.90625 0.703125q-1.765625 0 -3.296875 -0.65625q-1.515625 -0.65625 -2.640625 -1.890625q-1.109375 -1.25 -1.765625 -3.046875q-0.640625 -1.8125 -0.640625 -4.140625q0 -2.109375 0.59375 -3.890625q0.59375 -1.796875 1.71875 -3.09375q1.125 -1.296875 2.78125 -2.015625q1.671875 -0.734375 3.8125 -0.734375q1.984375 0 3.515625 0.640625q1.53125 0.640625 2.703125 1.828125l-0.875 1.1875zm10.260437 15.84375q-2.234375 0 -3.4375 -1.25q-1.203125 -1.25 -1.203125 -3.59375l0 -11.578125l-2.28125 0q-0.296875 0 -0.5 -0.171875q-0.203125 -0.1875 -0.203125 -0.5625l0 -1.3125l3.09375 -0.40625l0.765625 -5.828125q0.03125 -0.28125 0.234375 -0.453125q0.203125 -0.1875 0.53125 -0.1875l1.671875 0l0 6.515625l5.421875 0l0 2.40625l-5.421875 0l0 11.34375q0 1.203125 0.578125 1.78125q0.578125 0.578125 1.5 0.578125q0.515625 0 0.890625 -0.140625q0.390625 -0.140625 0.671875 -0.3125q0.28125 -0.171875 0.46875 -0.3125q0.203125 -0.140625 0.359375 -0.140625q0.265625 0 0.46875 0.328125l0.96875 1.578125q-0.859375 0.8125 -2.078125 1.265625q-1.203125 0.453125 -2.5 0.453125zm11.892151 -19.203125l0 18.90625l-3.328125 0l0 -18.90625l3.328125 0zm0.75 -5.9375q0 0.484375 -0.203125 0.90625q-0.1875 0.421875 -0.515625 0.75q-0.328125 0.328125 -0.765625 0.515625q-0.421875 0.1875 -0.90625 0.1875q-0.484375 0 -0.90625 -0.1875q-0.421875 -0.1875 -0.75 -0.515625q-0.328125 -0.328125 -0.515625 -0.75q-0.1875 -0.421875 -0.1875 -0.90625q0 -0.484375 0.1875 -0.921875q0.1875 -0.4375 0.515625 -0.765625q0.328125 -0.328125 0.75 -0.515625q0.421875 -0.1875 0.90625 -0.1875q0.484375 0 0.90625 0.1875q0.4375 0.1875 0.765625 0.515625q0.328125 0.328125 0.515625 0.765625q0.203125 0.4375 0.203125 0.921875zm18.009155 9.296875q-0.15625 0.203125 -0.3125 0.3125q-0.140625 0.109375 -0.421875 0.109375q-0.28125 0 -0.609375 -0.21875q-0.328125 -0.234375 -0.828125 -0.515625q-0.5 -0.28125 -1.21875 -0.515625q-0.71875 -0.234375 -1.765625 -0.234375q-1.375 0 -2.4375 0.5q-1.0625 0.484375 -1.78125 1.421875q-0.71875 0.9375 -1.09375 2.265625q-0.359375 1.3125 -0.359375 2.953125q0 1.71875 0.390625 3.0625q0.390625 1.328125 1.09375 2.234375q0.71875 0.90625 1.734375 1.390625q1.015625 0.46875 2.28125 0.46875q1.21875 0 2.0 -0.28125q0.78125 -0.296875 1.296875 -0.65625q0.53125 -0.359375 0.859375 -0.640625q0.34375 -0.296875 0.6875 -0.296875q0.421875 0 0.625 0.328125l0.9375 1.203125q-1.234375 1.515625 -3.078125 2.21875q-1.84375 0.703125 -3.90625 0.703125q-1.765625 0 -3.296875 -0.65625q-1.515625 -0.65625 -2.640625 -1.890625q-1.109375 -1.25 -1.765625 -3.046875q-0.640625 -1.8125 -0.640625 -4.140625q0 -2.109375 0.59375 -3.890625q0.59375 -1.796875 1.71875 -3.09375q1.125 -1.296875 2.78125 -2.015625q1.671875 -0.734375 3.8125 -0.734375q1.984375 0 3.515625 0.640625q1.53125 0.640625 2.703125 1.828125l-0.875 1.1875z" fill-rule="nonzero"/><path fill="#000000" d="m538.6097 540.2082l0 -25.3125l1.984375 0q0.703125 0 0.890625 0.6875l0.28125 2.25q1.21875 -1.484375 2.765625 -2.375q1.5625 -0.90625 3.609375 -0.90625q1.625 0 2.9375 0.625q1.328125 0.625 2.265625 1.859375q0.9375 1.21875 1.4375 3.03125q0.5 1.8125 0.5 4.15625q0 2.09375 -0.5625 3.90625q-0.5625 1.796875 -1.609375 3.109375q-1.03125 1.3125 -2.5625 2.078125q-1.515625 0.75 -3.421875 0.75q-1.75 0 -3.0 -0.578125q-1.234375 -0.578125 -2.1875 -1.640625l0 8.359375l-3.328125 0zm8.421875 -22.96875q-1.625 0 -2.84375 0.75q-1.21875 0.75 -2.25 2.109375l0 9.15625q0.921875 1.21875 2.0 1.734375q1.09375 0.5 2.4375 0.5q2.640625 0 4.046875 -1.875q1.421875 -1.890625 1.421875 -5.390625q0 -1.84375 -0.328125 -3.171875q-0.328125 -1.328125 -0.9375 -2.171875q-0.609375 -0.84375 -1.515625 -1.234375q-0.890625 -0.40625 -2.03125 -0.40625zm26.073975 16.5625l-1.46875 0q-0.484375 0 -0.796875 -0.140625q-0.296875 -0.15625 -0.390625 -0.640625l-0.359375 -1.75q-0.75 0.671875 -1.46875 1.203125q-0.703125 0.53125 -1.484375 0.890625q-0.78125 0.359375 -1.671875 0.546875q-0.890625 0.1875 -1.96875 0.1875q-1.109375 0 -2.078125 -0.296875q-0.953125 -0.3125 -1.65625 -0.921875q-0.703125 -0.625 -1.125 -1.5625q-0.421875 -0.953125 -0.421875 -2.234375q0 -1.125 0.609375 -2.15625q0.625 -1.03125 1.984375 -1.828125q1.375 -0.8125 3.59375 -1.328125q2.234375 -0.515625 5.4375 -0.59375l0 -1.46875q0 -2.203125 -0.953125 -3.328125q-0.9375 -1.140625 -2.78125 -1.140625q-1.203125 0 -2.046875 0.3125q-0.828125 0.3125 -1.4375 0.703125q-0.59375 0.375 -1.046875 0.6875q-0.4375 0.296875 -0.859375 0.296875q-0.34375 0 -0.59375 -0.171875q-0.25 -0.171875 -0.390625 -0.4375l-0.609375 -1.0625q1.578125 -1.515625 3.375 -2.265625q1.8125 -0.75 4.015625 -0.75q1.59375 0 2.828125 0.53125q1.234375 0.515625 2.0625 1.453125q0.84375 0.9375 1.265625 2.265625q0.4375 1.3125 0.4375 2.90625l0 12.09375zm-8.625 -2.03125q0.875 0 1.609375 -0.171875q0.734375 -0.1875 1.375 -0.515625q0.640625 -0.328125 1.21875 -0.78125q0.59375 -0.46875 1.15625 -1.078125l0 -3.9375q-2.296875 0.078125 -3.90625 0.375q-1.59375 0.28125 -2.609375 0.75q-1.0 0.46875 -1.46875 1.109375q-0.453125 0.625 -0.453125 1.40625q0 0.75 0.234375 1.296875q0.25 0.53125 0.65625 0.875q0.421875 0.34375 0.96875 0.515625q0.5625 0.15625 1.21875 0.15625zm13.65979 2.03125l0 -18.90625l1.90625 0q0.546875 0 0.75 0.203125q0.203125 0.203125 0.28125 0.703125l0.21875 2.953125q0.96875 -1.96875 2.390625 -3.078125q1.4375 -1.125 3.359375 -1.125q0.78125 0 1.421875 0.1875q0.640625 0.171875 1.171875 0.484375l-0.421875 2.484375q-0.140625 0.46875 -0.578125 0.46875q-0.265625 0 -0.8125 -0.171875q-0.53125 -0.171875 -1.5 -0.171875q-1.734375 0 -2.90625 1.015625q-1.171875 1.0 -1.953125 2.921875l0 12.03125l-3.328125 0zm25.871399 -15.796875q-0.21875 0.421875 -0.6875 0.421875q-0.28125 0 -0.640625 -0.203125q-0.34375 -0.21875 -0.859375 -0.46875q-0.515625 -0.25 -1.234375 -0.453125q-0.703125 -0.21875 -1.671875 -0.21875q-0.84375 0 -1.515625 0.21875q-0.671875 0.203125 -1.15625 0.578125q-0.46875 0.375 -0.71875 0.875q-0.25 0.484375 -0.25 1.0625q0 0.734375 0.421875 1.21875q0.421875 0.484375 1.109375 0.84375q0.6875 0.34375 1.5625 0.625q0.890625 0.265625 1.8125 0.578125q0.921875 0.296875 1.796875 0.671875q0.875 0.375 1.5625 0.9375q0.703125 0.5625 1.109375 1.375q0.421875 0.8125 0.421875 1.953125q0 1.296875 -0.46875 2.40625q-0.453125 1.109375 -1.375 1.921875q-0.90625 0.8125 -2.234375 1.28125q-1.328125 0.46875 -3.0625 0.46875q-1.984375 0 -3.59375 -0.640625q-1.59375 -0.640625 -2.71875 -1.65625l0.78125 -1.265625q0.15625 -0.25 0.359375 -0.375q0.203125 -0.125 0.546875 -0.125q0.328125 0 0.703125 0.265625q0.375 0.25 0.90625 0.578125q0.53125 0.3125 1.28125 0.578125q0.765625 0.25 1.90625 0.25q0.96875 0 1.6875 -0.25q0.734375 -0.25 1.21875 -0.671875q0.484375 -0.4375 0.71875 -1.0q0.234375 -0.5625 0.234375 -1.1875q0 -0.78125 -0.421875 -1.296875q-0.421875 -0.515625 -1.109375 -0.875q-0.6875 -0.375 -1.578125 -0.640625q-0.890625 -0.265625 -1.8125 -0.5625q-0.921875 -0.3125 -1.8125 -0.6875q-0.890625 -0.390625 -1.578125 -0.96875q-0.6875 -0.578125 -1.109375 -1.421875q-0.421875 -0.84375 -0.421875 -2.0625q0 -1.078125 0.453125 -2.078125q0.453125 -1.0 1.3125 -1.75q0.859375 -0.765625 2.109375 -1.203125q1.25 -0.453125 2.84375 -0.453125q1.875 0 3.359375 0.59375q1.484375 0.578125 2.5625 1.609375l-0.75 1.203125zm9.075439 -3.109375l0 18.90625l-3.328125 0l0 -18.90625l3.328125 0zm0.75 -5.9374695q0 0.484375 -0.203125 0.90625q-0.1875 0.421875 -0.515625 0.75q-0.328125 0.328125 -0.765625 0.515625q-0.421875 0.1875 -0.90625 0.1875q-0.484375 0 -0.90625 -0.1875q-0.421875 -0.1875 -0.75 -0.515625q-0.328125 -0.328125 -0.515625 -0.75q-0.1875 -0.421875 -0.1875 -0.90625q0 -0.484375 0.1875 -0.921875q0.1875 -0.4375 0.515625 -0.765625q0.328125 -0.328125 0.75 -0.515625q0.421875 -0.1875 0.90625 -0.1875q0.484375 0 0.90625 0.1875q0.4375 0.1875 0.765625 0.515625q0.328125 0.328125 0.515625 0.765625q0.203125 0.4375 0.203125 0.921875zm5.1029053 24.84372l0 -18.90625l1.984375 0q0.703125 0 0.890625 0.6875l0.265625 2.0625q1.234375 -1.375 2.75 -2.203125q1.53125 -0.84375 3.515625 -0.84375q1.5625 0 2.734375 0.515625q1.1875 0.515625 1.984375 1.453125q0.796875 0.9375 1.203125 2.265625q0.40625 1.328125 0.40625 2.9375l0 12.03125l-3.3125 0l0 -12.03125q0 -2.15625 -0.984375 -3.34375q-0.984375 -1.1875 -3.0 -1.1875q-1.46875 0 -2.75 0.71875q-1.28125 0.703125 -2.359375 1.921875l0 13.921875l-3.328125 0zm27.129517 -19.21875q1.234375 0 2.296875 0.265625q1.078125 0.265625 1.953125 0.796875l5.140625 0l0 1.234375q0 0.609375 -0.796875 0.78125l-2.140625 0.296875q0.640625 1.21875 0.640625 2.703125q0 1.375 -0.53125 2.515625q-0.53125 1.125 -1.484375 1.9375q-0.9375 0.796875 -2.234375 1.234375q-1.296875 0.421875 -2.84375 0.421875q-1.328125 0 -2.5 -0.328125q-0.609375 0.375 -0.921875 0.8125q-0.296875 0.421875 -0.296875 0.828125q0 0.671875 0.53125 1.03125q0.546875 0.34375 1.4375 0.5q0.90625 0.140625 2.046875 0.1875q1.140625 0.03125 2.3125 0.109375q1.1875 0.078125 2.328125 0.296875q1.140625 0.203125 2.03125 0.671875q0.90625 0.453125 1.4375 1.28125q0.546875 0.8125 0.546875 2.125q0 1.21875 -0.609375 2.34375q-0.609375 1.140625 -1.75 2.03125q-1.125 0.890625 -2.78125 1.421875q-1.640625 0.53125 -3.703125 0.53125q-2.078125 0 -3.640625 -0.421875q-1.546875 -0.40625 -2.578125 -1.09375q-1.03125 -0.6875 -1.546875 -1.59375q-0.5 -0.90625 -0.5 -1.890625q0 -1.40625 0.875 -2.375q0.890625 -0.984375 2.4375 -1.5625q-0.796875 -0.375 -1.28125 -1.0q-0.46875 -0.625 -0.46875 -1.671875q0 -0.40625 0.140625 -0.84375q0.15625 -0.4375 0.46875 -0.859375q0.3125 -0.4375 0.75 -0.828125q0.453125 -0.40625 1.046875 -0.703125q-1.390625 -0.78125 -2.1875 -2.078125q-0.796875 -1.296875 -0.796875 -3.03125q0 -1.375 0.53125 -2.5q0.53125 -1.140625 1.484375 -1.921875q0.953125 -0.796875 2.265625 -1.21875q1.3125 -0.4375 2.890625 -0.4375zm5.890625 20.25q0 -0.71875 -0.390625 -1.140625q-0.390625 -0.4375 -1.0625 -0.671875q-0.671875 -0.234375 -1.546875 -0.34375q-0.875 -0.109375 -1.84375 -0.15625q-0.96875 -0.046875 -1.984375 -0.09375q-1.015625 -0.0625 -1.921875 -0.21875q-1.0625 0.515625 -1.734375 1.25q-0.65625 0.71875 -0.65625 1.71875q0 0.640625 0.328125 1.1875q0.328125 0.546875 1.0 0.953125q0.671875 0.40625 1.6875 0.640625q1.015625 0.234375 2.390625 0.234375q1.34375 0 2.40625 -0.25q1.078125 -0.234375 1.8125 -0.6875q0.734375 -0.453125 1.125 -1.078125q0.390625 -0.609375 0.390625 -1.34375zm-5.890625 -10.265625q1.0 0 1.765625 -0.28125q0.78125 -0.28125 1.296875 -0.78125q0.53125 -0.515625 0.796875 -1.203125q0.265625 -0.703125 0.265625 -1.546875q0 -1.734375 -1.0625 -2.75q-1.046875 -1.03125 -3.0625 -1.03125q-2.0 0 -3.0625 1.03125q-1.046875 1.015625 -1.046875 2.75q0 0.84375 0.265625 1.546875q0.28125 0.6875 0.796875 1.203125q0.515625 0.5 1.28125 0.78125q0.765625 0.28125 1.765625 0.28125z" fill-rule="nonzero"/><path fill="#000000" fill-opacity="0.0" d="m353.3783 359.99335l265.7953 0l0 125.13385l-265.7953 0z" fill-rule="evenodd"/><path fill="#000000" d="m388.80017 391.47397q0 3.0 -0.953125 5.46875q-0.9375 2.453125 -2.6875 4.21875q-1.734375 1.75 -4.15625 2.71875q-2.421875 0.953125 -5.375 0.953125l-10.0 0l0 -26.75l10.0 0q2.953125 0 5.375 0.96875q2.421875 0.953125 4.15625 2.71875q1.75 1.765625 2.6875 4.234375q0.953125 2.453125 0.953125 5.46875zm-3.703125 0q0 -2.46875 -0.671875 -4.40625q-0.671875 -1.9375 -1.90625 -3.28125q-1.234375 -1.34375 -3.0 -2.046875q-1.75 -0.71875 -3.890625 -0.71875l-6.359375 0l0 20.875l6.359375 0q2.140625 0 3.890625 -0.703125q1.765625 -0.703125 3.0 -2.03125q1.234375 -1.34375 1.90625 -3.28125q0.671875 -1.953125 0.671875 -4.40625zm15.592529 -5.84375q1.703125 0 3.140625 0.578125q1.4375 0.5625 2.484375 1.640625q1.046875 1.0625 1.625 2.640625q0.59375 1.578125 0.59375 3.59375q0 0.78125 -0.171875 1.046875q-0.15625 0.265625 -0.625 0.265625l-12.578125 0q0.03125 1.78125 0.46875 3.109375q0.453125 1.328125 1.234375 2.21875q0.796875 0.875 1.875 1.3125q1.078125 0.4375 2.421875 0.4375q1.25 0 2.15625 -0.28125q0.90625 -0.296875 1.5625 -0.625q0.65625 -0.34375 1.09375 -0.625q0.4375 -0.296875 0.75 -0.296875q0.40625 0 0.640625 0.328125l0.9375 1.203125q-0.625 0.75 -1.484375 1.3125q-0.859375 0.546875 -1.84375 0.90625q-0.96875 0.34375 -2.015625 0.515625q-1.046875 0.1875 -2.078125 0.1875q-1.953125 0 -3.609375 -0.65625q-1.65625 -0.671875 -2.859375 -1.953125q-1.203125 -1.28125 -1.875 -3.15625q-0.671875 -1.890625 -0.671875 -4.34375q0 -1.96875 0.609375 -3.6875q0.609375 -1.71875 1.75 -2.96875q1.140625 -1.265625 2.78125 -1.984375q1.640625 -0.71875 3.6875 -0.71875zm0.078125 2.4375q-2.40625 0 -3.796875 1.390625q-1.375 1.390625 -1.703125 3.859375l10.28125 0q0 -1.15625 -0.328125 -2.109375q-0.3125 -0.96875 -0.921875 -1.671875q-0.609375 -0.703125 -1.5 -1.078125q-0.890625 -0.390625 -2.03125 -0.390625zm11.997498 23.171875l0 -25.3125l1.984375 0q0.703125 0 0.890625 0.6875l0.28125 2.25q1.21875 -1.484375 2.765625 -2.375q1.5625 -0.90625 3.609375 -0.90625q1.625 0 2.9375 0.625q1.328125 0.625 2.265625 1.859375q0.9375 1.21875 1.4375 3.03125q0.5 1.8125 0.5 4.15625q0 2.09375 -0.5625 3.90625q-0.5625 1.796875 -1.609375 3.109375q-1.03125 1.3125 -2.5625 2.078125q-1.515625 0.75 -3.421875 0.75q-1.75 0 -3.0 -0.578125q-1.234375 -0.578125 -2.1875 -1.640625l0 8.359375l-3.328125 0zm8.421875 -22.96875q-1.625 0 -2.84375 0.75q-1.21875 0.75 -2.25 2.109375l0 9.15625q0.921875 1.21875 2.0 1.734375q1.09375 0.5 2.4375 0.5q2.640625 0 4.046875 -1.875q1.421875 -1.890625 1.421875 -5.390625q0 -1.84375 -0.328125 -3.171875q-0.328125 -1.328125 -0.9375 -2.171875q-0.609375 -0.84375 -1.515625 -1.234375q-0.890625 -0.40625 -2.03125 -0.40625zm19.667694 -2.640625q1.703125 0 3.140625 0.578125q1.4375 0.5625 2.484375 1.640625q1.046875 1.0625 1.625 2.640625q0.59375 1.578125 0.59375 3.59375q0 0.78125 -0.171875 1.046875q-0.15625 0.265625 -0.625 0.265625l-12.578125 0q0.03125 1.78125 0.46875 3.109375q0.453125 1.328125 1.234375 2.21875q0.796875 0.875 1.875 1.3125q1.078125 0.4375 2.421875 0.4375q1.25 0 2.15625 -0.28125q0.90625 -0.296875 1.5625 -0.625q0.65625 -0.34375 1.09375 -0.625q0.4375 -0.296875 0.75 -0.296875q0.40625 0 0.640625 0.328125l0.9375 1.203125q-0.625 0.75 -1.484375 1.3125q-0.859375 0.546875 -1.84375 0.90625q-0.96875 0.34375 -2.015625 0.515625q-1.046875 0.1875 -2.078125 0.1875q-1.953125 0 -3.609375 -0.65625q-1.65625 -0.671875 -2.859375 -1.953125q-1.203125 -1.28125 -1.875 -3.15625q-0.671875 -1.890625 -0.671875 -4.34375q0 -1.96875 0.609375 -3.6875q0.609375 -1.71875 1.75 -2.96875q1.140625 -1.265625 2.78125 -1.984375q1.640625 -0.71875 3.6875 -0.71875zm0.078125 2.4375q-2.40625 0 -3.796875 1.390625q-1.375 1.390625 -1.703125 3.859375l10.28125 0q0 -1.15625 -0.328125 -2.109375q-0.3125 -0.96875 -0.921875 -1.671875q-0.609375 -0.703125 -1.5 -1.078125q-0.890625 -0.390625 -2.03125 -0.390625zm11.997498 16.765625l0 -18.90625l1.984375 0q0.703125 0 0.890625 0.6875l0.265625 2.0625q1.234375 -1.375 2.75 -2.203125q1.53125 -0.84375 3.515625 -0.84375q1.5625 0 2.734375 0.515625q1.1875 0.515625 1.984375 1.453125q0.796875 0.9375 1.203125 2.265625q0.40625 1.328125 0.40625 2.9375l0 12.03125l-3.3125 0l0 -12.03125q0 -2.15625 -0.984375 -3.34375q-0.984375 -1.1875 -3.0 -1.1875q-1.46875 0 -2.75 0.71875q-1.28125 0.703125 -2.359375 1.921875l0 13.921875l-3.328125 0zm34.067017 0q-0.703125 0 -0.890625 -0.6875l-0.296875 -2.296875q-1.21875 1.46875 -2.78125 2.359375q-1.546875 0.890625 -3.578125 0.890625q-1.609375 0 -2.9375 -0.625q-1.328125 -0.625 -2.265625 -1.84375q-0.921875 -1.21875 -1.4375 -3.015625q-0.5 -1.8125 -0.5 -4.171875q0 -2.09375 0.5625 -3.890625q0.5625 -1.796875 1.609375 -3.125q1.0625 -1.328125 2.5625 -2.078125q1.515625 -0.765625 3.4375 -0.765625q1.734375 0 2.96875 0.59375q1.234375 0.59375 2.203125 1.65625l0 -10.5l3.328125 0l0 27.5l-1.984375 0zm-6.4375 -2.421875q1.625 0 2.84375 -0.75q1.21875 -0.75 2.25 -2.109375l0 -9.140625q-0.90625 -1.234375 -2.0 -1.71875q-1.09375 -0.5 -2.421875 -0.5q-2.65625 0 -4.078125 1.890625q-1.40625 1.875 -1.40625 5.359375q0 1.84375 0.3125 3.171875q0.3125 1.3125 0.921875 2.171875q0.625 0.84375 1.515625 1.234375q0.90625 0.390625 2.0625 0.390625zm21.47586 -16.78125q1.703125 0 3.140625 0.578125q1.4375 0.5625 2.484375 1.640625q1.046875 1.0625 1.625 2.640625q0.59375 1.578125 0.59375 3.59375q0 0.78125 -0.171875 1.046875q-0.15625 0.265625 -0.625 0.265625l-12.578125 0q0.03125 1.78125 0.46875 3.109375q0.453125 1.328125 1.234375 2.21875q0.796875 0.875 1.875 1.3125q1.078125 0.4375 2.421875 0.4375q1.25 0 2.15625 -0.28125q0.90625 -0.296875 1.5625 -0.625q0.65625 -0.34375 1.09375 -0.625q0.4375 -0.296875 0.75 -0.296875q0.40625 0 0.640625 0.328125l0.9375 1.203125q-0.625 0.75 -1.484375 1.3125q-0.859375 0.546875 -1.84375 0.90625q-0.96875 0.34375 -2.015625 0.515625q-1.046875 0.1875 -2.078125 0.1875q-1.953125 0 -3.609375 -0.65625q-1.65625 -0.671875 -2.859375 -1.953125q-1.203125 -1.28125 -1.875 -3.15625q-0.671875 -1.890625 -0.671875 -4.34375q0 -1.96875 0.609375 -3.6875q0.609375 -1.71875 1.75 -2.96875q1.140625 -1.265625 2.78125 -1.984375q1.640625 -0.71875 3.6875 -0.71875zm0.078125 2.4375q-2.40625 0 -3.796875 1.390625q-1.375 1.390625 -1.703125 3.859375l10.28125 0q0 -1.15625 -0.328125 -2.109375q-0.3125 -0.96875 -0.921875 -1.671875q-0.609375 -0.703125 -1.5 -1.078125q-0.890625 -0.390625 -2.03125 -0.390625zm11.997498 16.765625l0 -18.90625l1.984375 0q0.703125 0 0.890625 0.6875l0.265625 2.0625q1.234375 -1.375 2.75 -2.203125q1.53125 -0.84375 3.515625 -0.84375q1.5625 0 2.734375 0.515625q1.1875 0.515625 1.984375 1.453125q0.796875 0.9375 1.203125 2.265625q0.40625 1.328125 0.40625 2.9375l0 12.03125l-3.3125 0l0 -12.03125q0 -2.15625 -0.984375 -3.34375q-0.984375 -1.1875 -3.0 -1.1875q-1.46875 0 -2.75 0.71875q-1.28125 0.703125 -2.359375 1.921875l0 13.921875l-3.328125 0zm33.660767 -15.546875q-0.15625 0.203125 -0.3125 0.3125q-0.140625 0.109375 -0.421875 0.109375q-0.28125 0 -0.609375 -0.21875q-0.328125 -0.234375 -0.828125 -0.515625q-0.5 -0.28125 -1.21875 -0.515625q-0.71875 -0.234375 -1.765625 -0.234375q-1.375 0 -2.4375 0.5q-1.0625 0.484375 -1.78125 1.421875q-0.71875 0.9375 -1.09375 2.265625q-0.359375 1.3125 -0.359375 2.953125q0 1.71875 0.390625 3.0625q0.390625 1.328125 1.09375 2.234375q0.71875 0.90625 1.734375 1.390625q1.015625 0.46875 2.28125 0.46875q1.21875 0 2.0 -0.28125q0.78125 -0.296875 1.296875 -0.65625q0.53125 -0.359375 0.859375 -0.640625q0.34375 -0.296875 0.6875 -0.296875q0.421875 0 0.625 0.328125l0.9375 1.203125q-1.234375 1.515625 -3.078125 2.21875q-1.84375 0.703125 -3.90625 0.703125q-1.765625 0 -3.296875 -0.65625q-1.515625 -0.65625 -2.640625 -1.890625q-1.109375 -1.25 -1.765625 -3.046875q-0.640625 -1.8125 -0.640625 -4.140625q0 -2.109375 0.59375 -3.890625q0.59375 -1.796875 1.71875 -3.09375q1.125 -1.296875 2.78125 -2.015625q1.671875 -0.734375 3.8125 -0.734375q1.984375 0 3.515625 0.640625q1.53125 0.640625 2.703125 1.828125l-0.875 1.1875zm10.072876 21.125q-0.171875 0.375 -0.421875 0.59375q-0.25 0.234375 -0.765625 0.234375l-2.46875 0l3.453125 -7.5l-7.796875 -17.8125l2.875 0q0.421875 0 0.65625 0.21875q0.25 0.203125 0.359375 0.46875l5.0625 11.90625q0.171875 0.421875 0.28125 0.828125q0.125 0.40625 0.21875 0.84375q0.140625 -0.4375 0.265625 -0.84375q0.125 -0.40625 0.296875 -0.84375l4.90625 -11.890625q0.109375 -0.296875 0.375 -0.484375q0.28125 -0.203125 0.59375 -0.203125l2.65625 0l-10.546875 24.484375z" fill-rule="nonzero"/><path fill="#000000" d="m365.09705 456.03958l0 -25.3125l1.984375 0q0.703125 0 0.890625 0.6875l0.28125 2.25q1.21875 -1.484375 2.765625 -2.375q1.5625 -0.90625 3.609375 -0.90625q1.625 0 2.9375 0.625q1.328125 0.625 2.265625 1.859375q0.9375 1.21875 1.4375 3.03125q0.5 1.8125 0.5 4.15625q0 2.09375 -0.5625 3.90625q-0.5625 1.796875 -1.609375 3.109375q-1.03125 1.3125 -2.5625 2.078125q-1.515625 0.75 -3.421875 0.75q-1.75 0 -3.0 -0.578125q-1.234375 -0.578125 -2.1875 -1.640625l0 8.359375l-3.328125 0zm8.421875 -22.96875q-1.625 0 -2.84375 0.75q-1.21875 0.75 -2.25 2.109375l0 9.15625q0.921875 1.21875 2.0 1.734375q1.09375 0.5 2.4375 0.5q2.640625 0 4.046875 -1.875q1.421875 -1.890625 1.421875 -5.390625q0 -1.84375 -0.328125 -3.171875q-0.328125 -1.328125 -0.9375 -2.171875q-0.609375 -0.84375 -1.515625 -1.234375q-0.890625 -0.40625 -2.03125 -0.40625zm26.073944 16.5625l-1.46875 0q-0.484375 0 -0.796875 -0.140625q-0.296875 -0.15625 -0.390625 -0.640625l-0.359375 -1.75q-0.75 0.671875 -1.46875 1.203125q-0.703125 0.53125 -1.484375 0.890625q-0.78125 0.359375 -1.671875 0.546875q-0.890625 0.1875 -1.96875 0.1875q-1.109375 0 -2.078125 -0.296875q-0.953125 -0.3125 -1.65625 -0.921875q-0.703125 -0.625 -1.125 -1.5625q-0.421875 -0.953125 -0.421875 -2.234375q0 -1.125 0.609375 -2.15625q0.625 -1.03125 1.984375 -1.828125q1.375 -0.8125 3.59375 -1.328125q2.234375 -0.515625 5.4375 -0.59375l0 -1.46875q0 -2.203125 -0.953125 -3.328125q-0.9375 -1.140625 -2.78125 -1.140625q-1.203125 0 -2.046875 0.3125q-0.828125 0.3125 -1.4375 0.703125q-0.59375 0.375 -1.046875 0.6875q-0.4375 0.296875 -0.859375 0.296875q-0.34375 0 -0.59375 -0.171875q-0.25 -0.171875 -0.390625 -0.4375l-0.609375 -1.0625q1.578125 -1.515625 3.375 -2.265625q1.8125 -0.75 4.015625 -0.75q1.59375 0 2.828125 0.53125q1.234375 0.515625 2.0625 1.453125q0.84375 0.9375 1.265625 2.265625q0.4375 1.3125 0.4375 2.90625l0 12.09375zm-8.625 -2.03125q0.875 0 1.609375 -0.171875q0.734375 -0.1875 1.375 -0.515625q0.640625 -0.328125 1.21875 -0.78125q0.59375 -0.46875 1.15625 -1.078125l0 -3.9375q-2.296875 0.078125 -3.90625 0.375q-1.59375 0.28125 -2.609375 0.75q-1.0 0.46875 -1.46875 1.109375q-0.453125 0.625 -0.453125 1.40625q0 0.75 0.234375 1.296875q0.25 0.53125 0.65625 0.875q0.421875 0.34375 0.96875 0.515625q0.5625 0.15625 1.21875 0.15625zm13.65979 2.03125l0 -18.90625l1.90625 0q0.546875 0 0.75 0.203125q0.203125 0.203125 0.28125 0.703125l0.21875 2.953125q0.96875 -1.96875 2.390625 -3.078125q1.4375 -1.125 3.359375 -1.125q0.78125 0 1.421875 0.1875q0.640625 0.171875 1.171875 0.484375l-0.421875 2.484375q-0.140625 0.46875 -0.578125 0.46875q-0.265625 0 -0.8125 -0.171875q-0.53125 -0.171875 -1.5 -0.171875q-1.734375 0 -2.90625 1.015625q-1.171875 1.0 -1.953125 2.921875l0 12.03125l-3.328125 0zm25.871399 -15.796875q-0.21875 0.421875 -0.6875 0.421875q-0.28125 0 -0.640625 -0.203125q-0.34375 -0.21875 -0.859375 -0.46875q-0.515625 -0.25 -1.234375 -0.453125q-0.703125 -0.21875 -1.671875 -0.21875q-0.84375 0 -1.515625 0.21875q-0.671875 0.203125 -1.15625 0.578125q-0.46875 0.375 -0.71875 0.875q-0.25 0.484375 -0.25 1.0625q0 0.734375 0.421875 1.21875q0.421875 0.484375 1.109375 0.84375q0.6875 0.34375 1.5625 0.625q0.890625 0.265625 1.8125 0.578125q0.921875 0.296875 1.796875 0.671875q0.875 0.375 1.5625 0.9375q0.703125 0.5625 1.109375 1.375q0.421875 0.8125 0.421875 1.953125q0 1.296875 -0.46875 2.40625q-0.453125 1.109375 -1.375 1.921875q-0.90625 0.8125 -2.234375 1.28125q-1.328125 0.46875 -3.0625 0.46875q-1.984375 0 -3.59375 -0.640625q-1.59375 -0.640625 -2.71875 -1.65625l0.78125 -1.265625q0.15625 -0.25 0.359375 -0.375q0.203125 -0.125 0.546875 -0.125q0.328125 0 0.703125 0.265625q0.375 0.25 0.90625 0.578125q0.53125 0.3125 1.28125 0.578125q0.765625 0.25 1.90625 0.25q0.96875 0 1.6875 -0.25q0.734375 -0.25 1.21875 -0.671875q0.484375 -0.4375 0.71875 -1.0q0.234375 -0.5625 0.234375 -1.1875q0 -0.78125 -0.421875 -1.296875q-0.421875 -0.515625 -1.109375 -0.875q-0.6875 -0.375 -1.578125 -0.640625q-0.890625 -0.265625 -1.8125 -0.5625q-0.921875 -0.3125 -1.8125 -0.6875q-0.890625 -0.390625 -1.578125 -0.96875q-0.6875 -0.578125 -1.109375 -1.421875q-0.421875 -0.84375 -0.421875 -2.0625q0 -1.078125 0.453125 -2.078125q0.453125 -1.0 1.3125 -1.75q0.859375 -0.765625 2.109375 -1.203125q1.25 -0.453125 2.84375 -0.453125q1.875 0 3.359375 0.59375q1.484375 0.578125 2.5625 1.609375l-0.75 1.203125zm9.07547 -3.109375l0 18.90625l-3.328125 0l0 -18.90625l3.328125 0zm0.75 -5.9375q0 0.484375 -0.203125 0.90625q-0.1875 0.421875 -0.515625 0.75q-0.328125 0.328125 -0.765625 0.515625q-0.421875 0.1875 -0.90625 0.1875q-0.484375 0 -0.90625 -0.1875q-0.421875 -0.1875 -0.75 -0.515625q-0.328125 -0.328125 -0.515625 -0.75q-0.1875 -0.421875 -0.1875 -0.90625q0 -0.484375 0.1875 -0.921875q0.1875 -0.4375 0.515625 -0.765625q0.328125 -0.328125 0.75 -0.515625q0.421875 -0.1875 0.90625 -0.1875q0.484375 0 0.90625 0.1875q0.4375 0.1875 0.765625 0.515625q0.328125 0.328125 0.515625 0.765625q0.203125 0.4375 0.203125 0.921875zm5.1029053 24.84375l0 -18.90625l1.984375 0q0.703125 0 0.890625 0.6875l0.265625 2.0625q1.234375 -1.375 2.75 -2.203125q1.53125 -0.84375 3.515625 -0.84375q1.5625 0 2.734375 0.515625q1.1875 0.515625 1.984375 1.453125q0.796875 0.9375 1.203125 2.265625q0.40625 1.328125 0.40625 2.9375l0 12.03125l-3.3125 0l0 -12.03125q0 -2.15625 -0.984375 -3.34375q-0.984375 -1.1875 -3.0 -1.1875q-1.46875 0 -2.75 0.71875q-1.28125 0.703125 -2.359375 1.921875l0 13.921875l-3.328125 0zm27.129486 -19.21875q1.234375 0 2.296875 0.265625q1.078125 0.265625 1.953125 0.796875l5.140625 0l0 1.234375q0 0.609375 -0.796875 0.78125l-2.140625 0.296875q0.640625 1.21875 0.640625 2.703125q0 1.375 -0.53125 2.515625q-0.53125 1.125 -1.484375 1.9375q-0.9375 0.796875 -2.234375 1.234375q-1.296875 0.421875 -2.84375 0.421875q-1.328125 0 -2.5 -0.328125q-0.609375 0.375 -0.921875 0.8125q-0.296875 0.421875 -0.296875 0.828125q0 0.671875 0.53125 1.03125q0.546875 0.34375 1.4375 0.5q0.90625 0.140625 2.046875 0.1875q1.140625 0.03125 2.3125 0.109375q1.1875 0.078125 2.328125 0.296875q1.140625 0.203125 2.03125 0.671875q0.90625 0.453125 1.4375 1.28125q0.546875 0.8125 0.546875 2.125q0 1.21875 -0.609375 2.34375q-0.609375 1.140625 -1.75 2.03125q-1.125 0.890625 -2.78125 1.421875q-1.640625 0.53125 -3.703125 0.53125q-2.078125 0 -3.640625 -0.421875q-1.546875 -0.40625 -2.578125 -1.09375q-1.03125 -0.6875 -1.546875 -1.59375q-0.5 -0.90625 -0.5 -1.890625q0 -1.40625 0.875 -2.375q0.890625 -0.984375 2.4375 -1.5625q-0.796875 -0.375 -1.28125 -1.0q-0.46875 -0.625 -0.46875 -1.671875q0 -0.40625 0.140625 -0.84375q0.15625 -0.4375 0.46875 -0.859375q0.3125 -0.4375 0.75 -0.828125q0.453125 -0.40625 1.046875 -0.703125q-1.390625 -0.78125 -2.1875 -2.078125q-0.796875 -1.296875 -0.796875 -3.03125q0 -1.375 0.53125 -2.5q0.53125 -1.140625 1.484375 -1.921875q0.953125 -0.796875 2.265625 -1.21875q1.3125 -0.4375 2.890625 -0.4375zm5.890625 20.25q0 -0.71875 -0.390625 -1.140625q-0.390625 -0.4375 -1.0625 -0.671875q-0.671875 -0.234375 -1.546875 -0.34375q-0.875 -0.109375 -1.84375 -0.15625q-0.96875 -0.046875 -1.984375 -0.09375q-1.015625 -0.0625 -1.921875 -0.21875q-1.0625 0.515625 -1.734375 1.25q-0.65625 0.71875 -0.65625 1.71875q0 0.640625 0.328125 1.1875q0.328125 0.546875 1.0 0.953125q0.671875 0.40625 1.6875 0.640625q1.015625 0.234375 2.390625 0.234375q1.34375 0 2.40625 -0.25q1.078125 -0.234375 1.8125 -0.6875q0.734375 -0.453125 1.125 -1.078125q0.390625 -0.609375 0.390625 -1.34375zm-5.890625 -10.265625q1.0 0 1.765625 -0.28125q0.78125 -0.28125 1.296875 -0.78125q0.53125 -0.515625 0.796875 -1.203125q0.265625 -0.703125 0.265625 -1.546875q0 -1.734375 -1.0625 -2.75q-1.046875 -1.03125 -3.0625 -1.03125q-2.0 0 -3.0625 1.03125q-1.046875 1.015625 -1.046875 2.75q0 0.84375 0.265625 1.546875q0.28125 0.6875 0.796875 1.203125q0.515625 0.5 1.28125 0.78125q0.765625 0.28125 1.765625 0.28125z" fill-rule="nonzero"/><path fill="#000000" fill-opacity="0.0" d="m276.53094 213.36058l159.46457 0l0 125.133865l-159.46457 0z" fill-rule="evenodd"/><path fill="#000000" d="m342.22495 255.32558q1.65625 0 2.96875 -0.5625q1.3125 -0.5625 2.21875 -1.5625q0.90625 -1.015625 1.375 -2.40625q0.484375 -1.40625 0.484375 -3.078125l0 -16.265625l3.59375 0l0 16.265625q0 2.3125 -0.734375 4.296875q-0.734375 1.96875 -2.109375 3.421875q-1.375 1.4375153 -3.359375 2.2656403q-1.96875 0.8125 -4.4375 0.8125q-2.453125 0 -4.4375 -0.8125q-1.984375 -0.828125 -3.375 -2.2656403q-1.375 -1.453125 -2.109375 -3.421875q-0.734375 -1.984375 -0.734375 -4.296875l0 -16.265625l3.609375 0l0 16.234375q0 1.6875 0.46875 3.09375q0.484375 1.390625 1.375 2.40625q0.90625 1.0 2.21875 1.578125q1.328125 0.5625 2.984375 0.5625zm40.030884 -10.484375q0 3.0 -0.953125 5.46875q-0.9375 2.453125 -2.6875 4.21875q-1.734375 1.7500153 -4.15625 2.7187653q-2.421875 0.953125 -5.375 0.953125l-10.0 0l0 -26.750015l10.0 0q2.953125 0 5.375 0.96875q2.421875 0.953125 4.15625 2.71875q1.75 1.765625 2.6875 4.234375q0.953125 2.453125 0.953125 5.46875zm-3.703125 0q0 -2.46875 -0.671875 -4.40625q-0.671875 -1.9375 -1.90625 -3.28125q-1.234375 -1.34375 -3.0 -2.046875q-1.75 -0.71875 -3.890625 -0.71875l-6.359375 0l0 20.875l6.359375 0q2.140625 0 3.890625 -0.703125q1.765625 -0.703125 3.0 -2.03125q1.234375 -1.34375 1.90625 -3.28125q0.671875 -1.953125 0.671875 -4.40625z" fill-rule="nonzero"/><path fill="#000000" d="m298.90216 309.40683l0 -25.3125l1.984375 0q0.703125 0 0.890625 0.6875l0.28125 2.25q1.21875 -1.484375 2.765625 -2.375q1.5625 -0.90625 3.609375 -0.90625q1.625 0 2.9375 0.625q1.328125 0.625 2.265625 1.859375q0.9375 1.21875 1.4375 3.03125q0.5 1.8125 0.5 4.15625q0 2.09375 -0.5625 3.90625q-0.5625 1.796875 -1.609375 3.109375q-1.03125 1.3125 -2.5625 2.078125q-1.515625 0.75 -3.421875 0.75q-1.75 0 -3.0 -0.578125q-1.234375 -0.578125 -2.1875 -1.640625l0 8.359375l-3.328125 0zm8.421875 -22.96875q-1.625 0 -2.84375 0.75q-1.21875 0.75 -2.25 2.109375l0 9.15625q0.921875 1.21875 2.0 1.734375q1.09375 0.5 2.4375 0.5q2.640625 0 4.046875 -1.875q1.421875 -1.890625 1.421875 -5.390625q0 -1.84375 -0.328125 -3.171875q-0.328125 -1.328125 -0.9375 -2.171875q-0.609375 -0.84375 -1.515625 -1.234375q-0.890625 -0.40625 -2.03125 -0.40625zm26.073944 16.5625l-1.46875 0q-0.484375 0 -0.796875 -0.140625q-0.296875 -0.15625 -0.390625 -0.640625l-0.359375 -1.75q-0.75 0.671875 -1.46875 1.203125q-0.703125 0.53125 -1.484375 0.890625q-0.78125 0.359375 -1.671875 0.546875q-0.890625 0.1875 -1.96875 0.1875q-1.109375 0 -2.078125 -0.296875q-0.953125 -0.3125 -1.65625 -0.921875q-0.703125 -0.625 -1.125 -1.5625q-0.421875 -0.953125 -0.421875 -2.234375q0 -1.125 0.609375 -2.15625q0.625 -1.03125 1.984375 -1.828125q1.375 -0.8125 3.59375 -1.328125q2.234375 -0.515625 5.4375 -0.59375l0 -1.46875q0 -2.203125 -0.953125 -3.328125q-0.9375 -1.140625 -2.78125 -1.140625q-1.203125 0 -2.046875 0.3125q-0.828125 0.3125 -1.4375 0.703125q-0.59375 0.375 -1.046875 0.6875q-0.4375 0.296875 -0.859375 0.296875q-0.34375 0 -0.59375 -0.171875q-0.25 -0.171875 -0.390625 -0.4375l-0.609375 -1.0625q1.578125 -1.515625 3.375 -2.265625q1.8125 -0.75 4.015625 -0.75q1.59375 0 2.828125 0.53125q1.234375 0.515625 2.0625 1.453125q0.84375 0.9375 1.265625 2.265625q0.4375 1.3125 0.4375 2.90625l0 12.09375zm-8.625 -2.03125q0.875 0 1.609375 -0.171875q0.734375 -0.1875 1.375 -0.515625q0.640625 -0.328125 1.21875 -0.78125q0.59375 -0.46875 1.15625 -1.078125l0 -3.9375q-2.296875 0.078125 -3.90625 0.375q-1.59375 0.28125 -2.609375 0.75q-1.0 0.46875 -1.46875 1.109375q-0.453125 0.625 -0.453125 1.40625q0 0.75 0.234375 1.296875q0.25 0.53125 0.65625 0.875q0.421875 0.34375 0.96875 0.515625q0.5625 0.15625 1.21875 0.15625zm13.65979 2.03125l0 -18.90625l1.90625 0q0.546875 0 0.75 0.203125q0.203125 0.203125 0.28125 0.703125l0.21875 2.953125q0.96875 -1.96875 2.390625 -3.078125q1.4375 -1.125 3.359375 -1.125q0.78125 0 1.421875 0.1875q0.640625 0.171875 1.171875 0.484375l-0.421875 2.484375q-0.140625 0.46875 -0.578125 0.46875q-0.265625 0 -0.8125 -0.171875q-0.53125 -0.171875 -1.5 -0.171875q-1.734375 0 -2.90625 1.015625q-1.171875 1.0 -1.953125 2.921875l0 12.03125l-3.328125 0zm25.87143 -15.796875q-0.21875 0.421875 -0.6875 0.421875q-0.28125 0 -0.640625 -0.203125q-0.34375 -0.21875 -0.859375 -0.46875q-0.515625 -0.25 -1.234375 -0.453125q-0.703125 -0.21875 -1.671875 -0.21875q-0.84375 0 -1.515625 0.21875q-0.671875 0.203125 -1.15625 0.578125q-0.46875 0.375 -0.71875 0.875q-0.25 0.484375 -0.25 1.0625q0 0.734375 0.421875 1.21875q0.421875 0.484375 1.109375 0.84375q0.6875 0.34375 1.5625 0.625q0.890625 0.265625 1.8125 0.578125q0.921875 0.296875 1.796875 0.671875q0.875 0.375 1.5625 0.9375q0.703125 0.5625 1.109375 1.375q0.421875 0.8125 0.421875 1.953125q0 1.296875 -0.46875 2.40625q-0.453125 1.109375 -1.375 1.921875q-0.90625 0.8125 -2.234375 1.28125q-1.328125 0.46875 -3.0625 0.46875q-1.984375 0 -3.59375 -0.640625q-1.59375 -0.640625 -2.71875 -1.65625l0.78125 -1.265625q0.15625 -0.25 0.359375 -0.375q0.203125 -0.125 0.546875 -0.125q0.328125 0 0.703125 0.265625q0.375 0.25 0.90625 0.578125q0.53125 0.3125 1.28125 0.578125q0.765625 0.25 1.90625 0.25q0.96875 0 1.6875 -0.25q0.734375 -0.25 1.21875 -0.671875q0.484375 -0.4375 0.71875 -1.0q0.234375 -0.5625 0.234375 -1.1875q0 -0.78125 -0.421875 -1.296875q-0.421875 -0.515625 -1.109375 -0.875q-0.6875 -0.375 -1.578125 -0.640625q-0.890625 -0.265625 -1.8125 -0.5625q-0.921875 -0.3125 -1.8125 -0.6875q-0.890625 -0.390625 -1.578125 -0.96875q-0.6875 -0.578125 -1.109375 -1.421875q-0.421875 -0.84375 -0.421875 -2.0625q0 -1.078125 0.453125 -2.078125q0.453125 -1.0 1.3125 -1.75q0.859375 -0.765625 2.109375 -1.203125q1.25 -0.453125 2.84375 -0.453125q1.875 0 3.359375 0.59375q1.484375 0.578125 2.5625 1.609375l-0.75 1.203125zm9.075439 -3.109375l0 18.90625l-3.328125 0l0 -18.90625l3.328125 0zm0.75 -5.9375q0 0.484375 -0.203125 0.90625q-0.1875 0.421875 -0.515625 0.75q-0.328125 0.328125 -0.765625 0.515625q-0.421875 0.1875 -0.90625 0.1875q-0.484375 0 -0.90625 -0.1875q-0.421875 -0.1875 -0.75 -0.515625q-0.328125 -0.328125 -0.515625 -0.75q-0.1875 -0.421875 -0.1875 -0.90625q0 -0.484375 0.1875 -0.921875q0.1875 -0.4375 0.515625 -0.765625q0.328125 -0.328125 0.75 -0.515625q0.421875 -0.1875 0.90625 -0.1875q0.484375 0 0.90625 0.1875q0.4375 0.1875 0.765625 0.515625q0.328125 0.328125 0.515625 0.765625q0.203125 0.4375 0.203125 0.921875zm5.1029053 24.84375l0 -18.90625l1.984375 0q0.703125 0 0.890625 0.6875l0.265625 2.0625q1.234375 -1.375 2.75 -2.203125q1.53125 -0.84375 3.515625 -0.84375q1.5625 0 2.734375 0.515625q1.1875 0.515625 1.984375 1.453125q0.796875 0.9375 1.203125 2.265625q0.40625 1.328125 0.40625 2.9375l0 12.03125l-3.3125 0l0 -12.03125q0 -2.15625 -0.984375 -3.34375q-0.984375 -1.1875 -3.0 -1.1875q-1.46875 0 -2.75 0.71875q-1.28125 0.703125 -2.359375 1.921875l0 13.921875l-3.328125 0zm27.129517 -19.21875q1.234375 0 2.296875 0.265625q1.078125 0.265625 1.953125 0.796875l5.140625 0l0 1.234375q0 0.609375 -0.796875 0.78125l-2.140625 0.296875q0.640625 1.21875 0.640625 2.703125q0 1.375 -0.53125 2.515625q-0.53125 1.125 -1.484375 1.9375q-0.9375 0.796875 -2.234375 1.234375q-1.296875 0.421875 -2.84375 0.421875q-1.328125 0 -2.5 -0.328125q-0.609375 0.375 -0.921875 0.8125q-0.296875 0.421875 -0.296875 0.828125q0 0.671875 0.53125 1.03125q0.546875 0.34375 1.4375 0.5q0.90625 0.140625 2.046875 0.1875q1.140625 0.03125 2.3125 0.109375q1.1875 0.078125 2.328125 0.296875q1.140625 0.203125 2.03125 0.671875q0.90625 0.453125 1.4375 1.28125q0.546875 0.8125 0.546875 2.125q0 1.21875 -0.609375 2.34375q-0.609375 1.140625 -1.75 2.03125q-1.125 0.890625 -2.78125 1.421875q-1.640625 0.53125 -3.703125 0.53125q-2.078125 0 -3.640625 -0.421875q-1.546875 -0.40625 -2.578125 -1.09375q-1.03125 -0.6875 -1.546875 -1.59375q-0.5 -0.90625 -0.5 -1.890625q0 -1.40625 0.875 -2.375q0.890625 -0.984375 2.4375 -1.5625q-0.796875 -0.375 -1.28125 -1.0q-0.46875 -0.625 -0.46875 -1.671875q0 -0.40625 0.140625 -0.84375q0.15625 -0.4375 0.46875 -0.859375q0.3125 -0.4375 0.75 -0.828125q0.453125 -0.40625 1.046875 -0.703125q-1.390625 -0.78125 -2.1875 -2.078125q-0.796875 -1.296875 -0.796875 -3.03125q0 -1.375 0.53125 -2.5q0.53125 -1.140625 1.484375 -1.921875q0.953125 -0.796875 2.265625 -1.21875q1.3125 -0.4375 2.890625 -0.4375zm5.890625 20.25q0 -0.71875 -0.390625 -1.140625q-0.390625 -0.4375 -1.0625 -0.671875q-0.671875 -0.234375 -1.546875 -0.34375q-0.875 -0.109375 -1.84375 -0.15625q-0.96875 -0.046875 -1.984375 -0.09375q-1.015625 -0.0625 -1.921875 -0.21875q-1.0625 0.515625 -1.734375 1.25q-0.65625 0.71875 -0.65625 1.71875q0 0.640625 0.328125 1.1875q0.328125 0.546875 1.0 0.953125q0.671875 0.40625 1.6875 0.640625q1.015625 0.234375 2.390625 0.234375q1.34375 0 2.40625 -0.25q1.078125 -0.234375 1.8125 -0.6875q0.734375 -0.453125 1.125 -1.078125q0.390625 -0.609375 0.390625 -1.34375zm-5.890625 -10.265625q1.0 0 1.765625 -0.28125q0.78125 -0.28125 1.296875 -0.78125q0.53125 -0.515625 0.796875 -1.203125q0.265625 -0.703125 0.265625 -1.546875q0 -1.734375 -1.0625 -2.75q-1.046875 -1.03125 -3.0625 -1.03125q-2.0 0 -3.0625 1.03125q-1.046875 1.015625 -1.046875 2.75q0 0.84375 0.265625 1.546875q0.28125 0.6875 0.796875 1.203125q0.515625 0.5 1.28125 0.78125q0.765625 0.28125 1.765625 0.28125z" fill-rule="nonzero"/></g></svg>